{"accessors":[{"bufferView":0,"byteOffset":0,"componentType":5126,"count":160,"max":[1.27084469795227,1.04956841468811,-0],"min":[-1.27084469795227,0,-2.97515034675598],"normalized":false,"type":"VEC3"},{"bufferView":1,"byteOffset":0,"componentType":5126,"count":160,"max":[1,0.0000305189751088619,-0.00001525902189,1],"min":[1,0,-0.00004577846266,-1],"normalized":false,"type":"VEC4"},{"bufferView":2,"byteOffset":0,"componentType":5126,"count":160,"max":[1,1,0.98853063583374],"min":[-1,-0.99735575914383,-0.98852801322937],"normalized":false,"type":"VEC3"},{"bufferView":3,"byteOffset":0,"componentType":5126,"count":160,"max":[1,1],"min":[0,0],"normalized":false,"type":"VEC2"},{"bufferView":4,"byteOffset":0,"componentType":5123,"count":312,"max":[157],"min":[0],"normalized":false,"type":"SCALAR"},{"bufferView":5,"byteOffset":0,"componentType":5126,"count":216,"max":[1.30539226531982,1.04956841468811,0.034547533839941],"min":[-1.30539226531982,0,-3.00969791412354],"normalized":false,"type":"VEC3"},{"bufferView":6,"byteOffset":0,"componentType":5126,"count":216,"max":[1,0.0000305189751088619,0.000755507149733603,1],"min":[0.999053478240967,-0.01295723766088,-0.04152407124639,-1],"normalized":false,"type":"VEC4"},{"bufferView":7,"byteOffset":0,"componentType":5126,"count":216,"max":[1,1,1],"min":[-1,-1,-1],"normalized":false,"type":"VEC3"},{"bufferView":8,"byteOffset":0,"componentType":5126,"count":216,"max":[1,1],"min":[0,0],"normalized":false,"type":"VEC2"},{"bufferView":9,"byteOffset":0,"componentType":5123,"count":444,"max":[215],"min":[0],"normalized":false,"type":"SCALAR"},{"bufferView":10,"byteOffset":0,"componentType":5126,"count":64,"max":[1.27084469795227,1.02488470077515,1.48757517337799],"min":[-1.27084469795227,0.0285501070320606,-1.48757517337799],"normalized":false,"type":"VEC3"},{"bufferView":11,"byteOffset":0,"componentType":5126,"count":64,"max":[1,0.995124399662018,0.0561542734503746,1],"min":[-0.06643000245094,-0.99513554573059,-0.07286082208157,-1],"normalized":false,"type":"VEC4"},{"bufferView":12,"byteOffset":0,"componentType":5126,"count":64,"max":[0.998697817325592,1,0.998076021671295],"min":[-0.99869865179062,-1,-0.99807500839233],"normalized":false,"type":"VEC3"},{"bufferView":13,"byteOffset":0,"componentType":5126,"count":64,"max":[1,1],"min":[0,-0.00000011920929],"normalized":false,"type":"VEC2"},{"bufferView":14,"byteOffset":0,"componentType":5123,"count":96,"max":[63],"min":[0],"normalized":false,"type":"SCALAR"},{"bufferView":15,"byteOffset":0,"componentType":5126,"count":112,"max":[1.27084469795227,1.02488470077515,1.48757517337799],"min":[-1.27084469795227,0,-1.48757517337799],"normalized":false,"type":"VEC3"},{"bufferView":16,"byteOffset":0,"componentType":5126,"count":112,"max":[1,0.995366930961609,0.0742741152644157,1],"min":[-0.0664614289999,-0.99548590183258,-0.07293243706226,-1],"normalized":false,"type":"VEC4"},{"bufferView":17,"byteOffset":0,"componentType":5126,"count":112,"max":[1,1,1],"min":[-1,-0.9977815747261,-1],"normalized":false,"type":"VEC3"},{"bufferView":18,"byteOffset":0,"componentType":5126,"count":112,"max":[1,1],"min":[0,-0.00000011920929],"normalized":false,"type":"VEC2"},{"bufferView":19,"byteOffset":0,"componentType":5123,"count":228,"max":[111],"min":[0],"normalized":false,"type":"SCALAR"},{"bufferView":20,"byteOffset":0,"componentType":5126,"count":91,"max":[1.19813537597656,0.323743224143982,-3.02755260467529],"min":[-1.26063525676727,-0.17287032306194,-3.26551675796509],"normalized":false,"type":"VEC3"},{"bufferView":21,"byteOffset":0,"componentType":5126,"count":91,"max":[1,0.0179126318544149,-0.00001525902189,1],"min":[0.802847862243652,-0.1626551002264,-0.57356661558151,-1],"normalized":false,"type":"VEC4"},{"bufferView":22,"byteOffset":0,"componentType":5126,"count":91,"max":[0.779420435428619,1,1],"min":[-0.77943933010101,-0.99976944923401,-1],"normalized":false,"type":"VEC3"},{"bufferView":23,"byteOffset":0,"componentType":5126,"count":91,"max":[1,0],"min":[0,-0.00000011920929],"normalized":false,"type":"VEC2"},{"bufferView":24,"byteOffset":0,"componentType":5123,"count":114,"max":[79],"min":[0],"normalized":false,"type":"SCALAR"}],"asset":{"generator":"Godot Engine v4.3.stable.official@77dcf97d82cbfe4e4615475fa52ca03da645dbd8","version":"2.0"},"bufferViews":[{"buffer":0,"byteLength":1920,"byteOffset":0,"byteStride":12,"target":34962},{"buffer":0,"byteLength":2560,"byteOffset":1920,"byteStride":16,"target":34962},{"buffer":0,"byteLength":1920,"byteOffset":4480,"byteStride":12,"target":34962},{"buffer":0,"byteLength":1280,"byteOffset":6400,"byteStride":8,"target":34962},{"buffer":0,"byteLength":624,"byteOffset":7680,"target":34963},{"buffer":0,"byteLength":2592,"byteOffset":8304,"byteStride":12,"target":34962},{"buffer":0,"byteLength":3456,"byteOffset":10896,"byteStride":16,"target":34962},{"buffer":0,"byteLength":2592,"byteOffset":14352,"byteStride":12,"target":34962},{"buffer":0,"byteLength":1728,"byteOffset":16944,"byteStride":8,"target":34962},{"buffer":0,"byteLength":888,"byteOffset":18672,"target":34963},{"buffer":0,"byteLength":768,"byteOffset":19560,"byteStride":12,"target":34962},{"buffer":0,"byteLength":1024,"byteOffset":20328,"byteStride":16,"target":34962},{"buffer":0,"byteLength":768,"byteOffset":21352,"byteStride":12,"target":34962},{"buffer":0,"byteLength":512,"byteOffset":22120,"byteStride":8,"target":34962},{"buffer":0,"byteLength":192,"byteOffset":22632,"target":34963},{"buffer":0,"byteLength":1344,"byteOffset":22824,"byteStride":12,"target":34962},{"buffer":0,"byteLength":1792,"byteOffset":24168,"byteStride":16,"target":34962},{"buffer":0,"byteLength":1344,"byteOffset":25960,"byteStride":12,"target":34962},{"buffer":0,"byteLength":896,"byteOffset":27304,"byteStride":8,"target":34962},{"buffer":0,"byteLength":456,"byteOffset":28200,"target":34963},{"buffer":0,"byteLength":1092,"byteOffset":28656,"byteStride":12,"target":34962},{"buffer":0,"byteLength":1456,"byteOffset":29748,"byteStride":16,"target":34962},{"buffer":0,"byteLength":1092,"byteOffset":31204,"byteStride":12,"target":34962},{"buffer":0,"byteLength":728,"byteOffset":32296,"byteStride":8,"target":34962},{"buffer":0,"byteLength":228,"byteOffset":33024,"target":34963}],"buffers":[{"byteLength":33252,"uri":"ChestOpened0.bin"}],"extensions":{"OMI_physics_shape":{"shapes":[{"box":{"size":[0.889785766601563,0.718616485595703,0.608291625976563]},"type":"box"}]}},"extensionsUsed":["GODOT_single_root","OMI_physics_body","OMI_physics_shape"],"materials":[{"doubleSided":true,"extensions":{},"name":"ChestBrown","pbrMetallicRoughness":{"baseColorFactor":[0.304985642433167,0.116970755159855,0.057805459946394,1],"metallicFactor":0,"roughnessFactor":0.675999999046326}},{"doubleSided":true,"extensions":{},"name":"ChestBorder","pbrMetallicRoughness":{"baseColorFactor":[0.188679650425911,0.188679650425911,0.188679650425911,1],"metallicFactor":0,"roughnessFactor":0.5}},{"doubleSided":true,"extensions":{},"name":"Material_002","pbrMetallicRoughness":{"baseColorFactor":[0.980990827083588,0.99999988079071,0.0950605720281601,1],"metallicFactor":0.888000011444092,"roughnessFactor":0.75600004196167}}],"meshes":[{"extras":{"targetNames":[]},"primitives":[{"attributes":{"NORMAL":2,"POSITION":0,"TANGENT":1,"TEXCOORD_0":3},"indices":4,"material":0,"mode":4},{"attributes":{"NORMAL":7,"POSITION":5,"TANGENT":6,"TEXCOORD_0":8},"indices":9,"material":1,"mode":4}]},{"extras":{"targetNames":[]},"primitives":[{"attributes":{"NORMAL":12,"POSITION":10,"TANGENT":11,"TEXCOORD_0":13},"indices":14,"material":0,"mode":4},{"attributes":{"NORMAL":17,"POSITION":15,"TANGENT":16,"TEXCOORD_0":18},"indices":19,"material":1,"mode":4}]},{"extras":{"targetNames":[]},"primitives":[{"attributes":{"NORMAL":22,"POSITION":20,"TANGENT":21,"TEXCOORD_0":23},"indices":24,"material":2,"mode":4}]}],"nodes":[{"children":[1],"name":"Node3D"},{"children":[2,6],"extensions":{"OMI_physics_body":{"motion":{"type":"static"}}},"name":"StaticBody3D"},{"children":[3,4,5],"name":"Chest_Opened","scale":[0.170303136110306,0.170303136110306,0.170303136110306]},{"mesh":0,"name":"Plane","rotation":[0.354070693254471,0.0000634657117188908,0.00156600994523615,0.935217320919037],"scale":[2.0094141960144,1.57421183586121,0.973148584365845],"translation":[-0.00033593690023,1.56661188602448,1.44600474834442]},{"mesh":1,"name":"Plane_001","scale":[2.0094141960144,1.57421183586121,0.973148584365845]},{"mesh":2,"name":"Plane_002","rotation":[0.935217320919037,0.00156600994523615,-0.00006346564624,-0.35407069325447],"scale":[-0.23839864134789,-1.83928799629211,-1.13701367378235],"translation":[0.0426927581429482,1.20616376399994,1.8501228094101]},{"extensions":{"OMI_physics_body":{"collider":{"shape":0}}},"name":"CollisionShape3D","translation":[-0.00722503662109,0.363019943237305,0.0503005981445313]}],"scene":0,"scenes":[{"nodes":[0]}]}